<svg width="24" height="24" viewBox="0 0 24 24" fill="none" xmlns="http://www.w3.org/2000/svg">
<path d="M22 8.34V15.66C22 17.16 20.37 18.1 19.07 17.35L15.9 15.53L12.73 13.7C12.53 13.58 12.37 13.45 12.24 13.29V10.73C12.37 10.57 12.53 10.44 12.73 10.32L15.9 8.48999L19.07 6.67002C20.37 5.90002 22 6.84 22 8.34Z" stroke="#292D32" stroke-width="1.5" stroke-linecap="round" stroke-linejoin="round"/>
<path d="M12.2401 8.34V15.66C12.2401 17.16 10.6101 18.1 9.31011 17.35L6.14013 15.53L2.97012 13.7C1.67012 12.95 1.67012 11.08 2.97012 10.32L6.14013 8.48999L9.31011 6.67002C10.6101 5.90002 12.2401 6.84 12.2401 8.34Z" stroke="#292D32" stroke-width="1.5" stroke-linecap="round" stroke-linejoin="round"/>
</svg>
