<svg width="24" height="24" viewBox="0 0 24 24" fill="none" xmlns="http://www.w3.org/2000/svg">
<path d="M15.9601 10.83H12.9001L12.1401 13.12H14.4301C15.2701 13.12 15.9601 13.8 15.9601 14.65C15.9601 15.49 15.2801 16.18 14.4301 16.18H12.1401" stroke="#292D32" stroke-width="1.5" stroke-linecap="round" stroke-linejoin="round"/>
<path d="M9.54004 16.17V10.83L8.04004 12.5" stroke="#292D32" stroke-width="1.5" stroke-linecap="round" stroke-linejoin="round"/>
<path d="M10.02 4.46997L12 2" stroke="#292D32" stroke-width="1.5" stroke-linecap="round" stroke-linejoin="round"/>
<path d="M4.90985 7.79999C3.79985 9.27999 3.10986 11.11 3.10986 13.11C3.10986 18.02 7.08988 22 11.9999 22C16.9099 22 20.8899 18.02 20.8899 13.11C20.8899 8.19999 16.9099 4.21997 11.9999 4.21997C11.3199 4.21997 10.6599 4.31002 10.0199 4.46002" stroke="#292D32" stroke-width="1.5" stroke-linecap="round" stroke-linejoin="round"/>
</svg>
