<svg width="24" height="24" viewBox="0 0 24 24" fill="none" xmlns="http://www.w3.org/2000/svg">
<path d="M23 15.97C23 19.84 19.87 22.97 16 22.97L17.05 21.22" stroke="#292D32" stroke-width="1.5" stroke-linecap="round" stroke-linejoin="round"/>
<path d="M1 7.96997C1 4.09997 4.13 0.969971 8 0.969971L6.95 2.71997" stroke="#292D32" stroke-width="1.5" stroke-linecap="round" stroke-linejoin="round"/>
<path d="M6.62 13.07H9.43C10.05 13.07 10.56 13.63 10.56 14.2C10.56 14.82 10.06 15.33 9.43 15.33H6.62V13.07Z" stroke="#292D32" stroke-width="1.5" stroke-miterlimit="10" stroke-linecap="round" stroke-linejoin="round"/>
<path d="M6.62 15.33H9.84C10.55 15.33 11.13 15.83 11.13 16.46C11.13 17.08 10.55 17.59 9.84 17.59H6.62V15.33Z" stroke="#292D32" stroke-width="1.5" stroke-miterlimit="10" stroke-linecap="round" stroke-linejoin="round"/>
<path d="M8.41998 17.58V18.7" stroke="#292D32" stroke-width="1.5" stroke-miterlimit="10" stroke-linecap="round" stroke-linejoin="round"/>
<path d="M8.41998 11.95V13.07" stroke="#292D32" stroke-width="1.5" stroke-miterlimit="10" stroke-linecap="round" stroke-linejoin="round"/>
<path d="M14.85 15.33C14.85 18.74 12.09 21.5 8.68001 21.5C5.27001 21.5 2.51001 18.74 2.51001 15.33C2.51001 11.92 5.27001 9.15997 8.68001 9.15997C8.84001 9.15997 8.99001 9.16999 9.16001 9.17999C12.19 9.40999 14.61 11.83 14.84 14.86C14.84 15.01 14.85 15.16 14.85 15.33Z" stroke="#292D32" stroke-width="1.5" stroke-miterlimit="10" stroke-linecap="round" stroke-linejoin="round"/>
<path d="M21.5 8.66998C21.5 12.08 18.74 14.84 15.33 14.84H14.84C14.61 11.81 12.19 9.38997 9.16003 9.15997V8.66998C9.16003 5.25998 11.92 2.5 15.33 2.5C18.74 2.5 21.5 5.25998 21.5 8.66998Z" stroke="#292D32" stroke-width="1.5" stroke-miterlimit="10" stroke-linecap="round" stroke-linejoin="round"/>
</svg>
