<svg width="22" height="22" viewBox="0 0 22 22" fill="none" xmlns="http://www.w3.org/2000/svg">
<path d="M14.97 8C14.97 11.87 11.84 15 7.96997 15C7.64997 15 7.33997 14.98 7.03997 14.93C3.60997 14.48 0.969971 11.55 0.969971 8C0.969971 4.13 4.09997 1 7.96997 1C11.52 1 14.45 3.64 14.9 7.07C14.95 7.37 14.97 7.68 14.97 8Z" stroke="#292D32" stroke-width="1.5" stroke-linecap="round" stroke-linejoin="round"/>
<path d="M20.97 14C20.97 17.87 17.84 21 13.97 21C10.42 21 7.48998 18.36 7.03998 14.93C7.33998 14.98 7.64998 15 7.96998 15C11.84 15 14.97 11.87 14.97 8.00001C14.97 7.68001 14.95 7.37001 14.9 7.07001C18.33 7.52001 20.97 10.45 20.97 14Z" stroke="#292D32" stroke-width="1.5" stroke-linecap="round" stroke-linejoin="round"/>
<path d="M13.12 13.12L14.43 14.41" stroke="#292D32" stroke-width="1.5" stroke-linecap="round" stroke-linejoin="round"/>
<path d="M15.97 11L14.97 10" stroke="#292D32" stroke-width="1.5" stroke-linecap="round" stroke-linejoin="round"/>
<path d="M10.97 16L9.96997 15" stroke="#292D32" stroke-width="1.5" stroke-linecap="round" stroke-linejoin="round"/>
</svg>
