<svg width="24" height="24" viewBox="0 0 24 24" fill="none" xmlns="http://www.w3.org/2000/svg">
<path d="M13.2 14.4C13.2 15.46 12.74 16.42 12 17.08C11.36 17.66 10.52 18 9.59998 18C7.60998 18 6 16.39 6 14.4C6 12.74 7.13002 11.34 8.65002 10.93C9.06002 11.97 9.94999 12.78 11.05 13.08C11.35 13.16 11.67 13.21 12 13.21C12.33 13.21 12.65 13.17 12.95 13.08C13.11 13.48 13.2 13.93 13.2 14.4Z" stroke="#292D32" stroke-width="1.5" stroke-linecap="round" stroke-linejoin="round"/>
<path d="M15.6 9.6C15.6 10.07 15.51 10.52 15.35 10.93C14.94 11.97 14.05 12.78 12.95 13.08C12.65 13.16 12.33 13.21 12 13.21C11.67 13.21 11.35 13.17 11.05 13.08C9.94999 12.78 9.06002 11.98 8.65002 10.93C8.49002 10.52 8.40002 10.07 8.40002 9.6C8.40002 7.61 10.01 6 12 6C13.99 6 15.6 7.61 15.6 9.6Z" stroke="#292D32" stroke-width="1.5" stroke-linecap="round" stroke-linejoin="round"/>
<path d="M18 14.4C18 16.39 16.39 18 14.4 18C13.48 18 12.64 17.65 12 17.08C12.74 16.43 13.2 15.47 13.2 14.4C13.2 13.93 13.11 13.48 12.95 13.07C14.05 12.77 14.94 11.97 15.35 10.92C16.87 11.34 18 12.74 18 14.4Z" stroke="#292D32" stroke-width="1.5" stroke-linecap="round" stroke-linejoin="round"/>
<path d="M9 22H15C20 22 22 20 22 15V9C22 4 20 2 15 2H9C4 2 2 4 2 9V15C2 20 4 22 9 22Z" stroke="#292D32" stroke-width="1.5" stroke-linecap="round" stroke-linejoin="round"/>
</svg>
