<svg width="25" height="25" viewBox="0 0 25 25" fill="none" xmlns="http://www.w3.org/2000/svg">
<path d="M11 3H9C4 3 2 5 2 10V16C2 21 4 23 9 23H15C20 23 22 21 22 16V14" stroke="#292D32" stroke-width="1.5" stroke-linecap="round" stroke-linejoin="round"/>
<path d="M18.04 2.02001L10.16 9.90001C9.86 10.2 9.56 10.79 9.5 11.22L9.07 14.23C8.91 15.32 9.68 16.08 10.77 15.93L13.78 15.5C14.2 15.44 14.79 15.14 15.1 14.84L22.98 6.96001C24.34 5.60001 24.98 4.02001 22.98 2.02001C20.98 0.0200086 19.4 0.660009 18.04 2.02001Z" stroke="#292D32" stroke-width="1.5" stroke-miterlimit="10" stroke-linecap="round" stroke-linejoin="round"/>
<path d="M16.91 3.15002C17.58 5.54002 19.45 7.41002 21.85 8.09002" stroke="#292D32" stroke-width="1.5" stroke-miterlimit="10" stroke-linecap="round" stroke-linejoin="round"/>
</svg>
