<svg width="24" height="24" viewBox="0 0 24 24" fill="none" xmlns="http://www.w3.org/2000/svg">
<path d="M8.49989 5.09998L11.1999 7.79998C11.5999 8.19998 12.3999 8.19998 12.7999 7.79998L15.4999 5.09998C16.1999 4.39998 15.6999 3.09998 14.6999 3.09998H9.29989C8.29989 3.19998 7.79989 4.39998 8.49989 5.09998Z" stroke="#17191C" stroke-width="1.5" stroke-miterlimit="10" stroke-linecap="round" stroke-linejoin="round"/>
<path d="M8.49989 18.9L11.1999 16.2C11.5999 15.8 12.3999 15.8 12.7999 16.2L15.4999 18.9C16.1999 19.6 15.6999 20.9 14.6999 20.9H9.29989C8.29989 20.8 7.79989 19.6 8.49989 18.9Z" stroke="#17191C" stroke-width="1.5" stroke-miterlimit="10" stroke-linecap="round" stroke-linejoin="round"/>
<path d="M2.2001 11.5L4.4001 8C4.7001 7.4 5.5001 7.3 6.0001 7.8L9.5001 11.3C9.9001 11.7 9.9001 12.3 9.5001 12.7L6.0001 16.2C5.5001 16.7 4.8001 16.6 4.4001 16L2.2001 12.5C1.9001 12.2 1.9001 11.8 2.2001 11.5Z" stroke="#17191C" stroke-width="1.5" stroke-miterlimit="10" stroke-linecap="round" stroke-linejoin="round"/>
<path d="M21.8 11.5L19.6 7.99998C19.3 7.49998 18.5 7.39998 18 7.79998L14.5 11.3C14.1 11.7 14.1 12.3 14.5 12.7L18 16.2C18.5 16.7 19.2 16.6 19.6 16L21.8 12.5C22.1 12.2 22.1 11.8 21.8 11.5Z" stroke="#17191C" stroke-width="1.5" stroke-miterlimit="10" stroke-linecap="round" stroke-linejoin="round"/>
</svg>
