<svg width="24" height="24" viewBox="0 0 24 24" fill="none" xmlns="http://www.w3.org/2000/svg">
<path d="M6.89991 9.1L11.6999 7C11.8999 6.9 12.0999 6.9 12.3999 7L17.1999 9.1C17.5999 9.3 17.9999 8.8 17.6999 8.4L12.6999 2.3C12.3999 1.9 11.7999 1.9 11.4999 2.3L6.49991 8.4C6.09991 8.8 6.49991 9.3 6.89991 9.1Z" stroke="#17191C" stroke-width="1.5" stroke-miterlimit="10" stroke-linecap="round" stroke-linejoin="round"/>
<path d="M6.89991 14.9L11.6999 17C11.8999 17.1 12.0999 17.1 12.3999 17L17.1999 14.9C17.5999 14.7 17.9999 15.2 17.6999 15.6L12.6999 21.7C12.3999 22.1 11.7999 22.1 11.4999 21.7L6.49991 15.6C6.09991 15.2 6.49991 14.7 6.89991 14.9Z" stroke="#17191C" stroke-width="1.5" stroke-miterlimit="10" stroke-linecap="round" stroke-linejoin="round"/>
<path d="M12 9.40002L6.80005 12L12 14.6L17.2 12L12 9.40002Z" stroke="#17191C" stroke-width="1.5" stroke-miterlimit="10" stroke-linecap="round" stroke-linejoin="round"/>
</svg>
