<svg width="24" height="24" viewBox="0 0 24 24" fill="none" xmlns="http://www.w3.org/2000/svg">
<path d="M13.41 20.79L12 21.7C10.69 22.51 8.87 21.6 8.87 19.98V14.63C8.87 13.92 8.47 13.01 8.06 12.51L4.21997 8.47C3.70997 7.96 3.31 7.06001 3.31 6.45001V4.13C3.31 2.92 4.22002 2.01001 5.33002 2.01001H18.67C19.78 2.01001 20.69 2.92 20.69 4.03V6.25C20.69 7.06 20.18 8.07001 19.68 8.57001" stroke="#292D32" stroke-width="1.5" stroke-miterlimit="10" stroke-linecap="round" stroke-linejoin="round"/>
<path d="M17.08 11.89L13.54 15.43C13.4 15.57 13.27 15.83 13.24 16.02L13.05 17.37C12.98 17.86 13.32 18.2 13.81 18.13L15.1599 17.94C15.3499 17.91 15.62 17.78 15.75 17.64L19.29 14.1C19.9 13.49 20.19 12.78 19.29 11.88C18.4 10.99 17.69 11.28 17.08 11.89Z" stroke="#292D32" stroke-width="1.5" stroke-miterlimit="10" stroke-linecap="round" stroke-linejoin="round"/>
<path d="M16.58 12.39C16.88 13.47 17.72 14.31 18.8 14.61" stroke="#292D32" stroke-width="1.5" stroke-miterlimit="10" stroke-linecap="round" stroke-linejoin="round"/>
</svg>
