<svg width="24" height="24" viewBox="0 0 24 24" fill="none" xmlns="http://www.w3.org/2000/svg">
<path d="M8.68 12.72H10.42V16.77C10.42 17.37 11.16 17.65 11.56 17.2L15.82 12.36C16.19 11.94 15.89 11.28 15.33 11.28H13.59V7.23C13.59 6.63 12.85 6.35 12.45 6.8L8.19 11.64C7.82 12.06 8.12 12.72 8.68 12.72Z" stroke="#292D32" stroke-width="1.5" stroke-miterlimit="10" stroke-linecap="round" stroke-linejoin="round"/>
<path d="M11.97 22C17.4928 22 21.97 17.5228 21.97 12C21.97 6.47715 17.4928 2 11.97 2C6.44715 2 1.97 6.47715 1.97 12C1.97 17.5228 6.44715 22 11.97 22Z" stroke="#292D32" stroke-width="1.5" stroke-miterlimit="10" stroke-linecap="round" stroke-linejoin="round"/>
</svg>
