<svg xmlns="http://www.w3.org/2000/svg" width="24" height="24" fill="none" viewBox="0 0 24 24">
  <path stroke="currentColor" stroke-linecap="round" stroke-linejoin="round" d="M10.25 17.833h3.5c2.917 0 4.083-1.166 4.083-4.083v-3.5c0-2.917-1.166-4.083-4.083-4.083h-3.5c-2.917 0-4.083 1.166-4.083 4.083v3.5c0 2.917 1.166 4.083 4.083 4.083Z"/>
  <path stroke="currentColor" stroke-linecap="round" stroke-linejoin="round" d="M10.25 10.833a1.167 1.167 0 1 0 0-2.333 1.167 1.167 0 0 0 0 2.333Zm-3.693 5.221 2.876-1.93c.461-.31 1.126-.275 1.54.081l.193.17a1.3 1.3 0 0 0 1.645 0l2.426-2.083a1.3 1.3 0 0 1 1.645 0l.951.816"/>
</svg>
