<svg width="24" height="24" viewBox="0 0 24 24" fill="none" xmlns="http://www.w3.org/2000/svg">
<path d="M5.47997 18.49V15.57C5.47997 14.6 6.23996 13.73 7.31996 13.73C8.28996 13.73 9.15996 14.49 9.15996 15.57V18.38C9.15996 20.33 7.53995 21.95 5.58995 21.95C3.63995 21.95 2.01994 20.32 2.01994 18.38V12.22C1.90994 6.59997 6.34996 2.04999 11.97 2.04999C17.59 2.04999 22.0199 6.59999 22.0199 12.11V18.27C22.0199 20.22 20.4 21.84 18.45 21.84C16.5 21.84 14.88 20.22 14.88 18.27V15.46C14.88 14.49 15.64 13.62 16.72 13.62C17.69 13.62 18.56 14.38 18.56 15.46V18.49" stroke="#292D32" stroke-width="1.5" stroke-linecap="round" stroke-linejoin="round"/>
<path d="M15.53 9.11999H14.72C14.5 9.11999 14.29 9.25 14.19 9.44L13.44 10.94C13.33 11.16 13.02 11.16 12.91 10.94L11.07 7.27002C10.96 7.06002 10.66 7.05001 10.55 7.26001L9.70996 8.80999C9.60996 8.99999 9.40997 9.11999 9.18997 9.11999H8.45996" stroke="#292D32" stroke-width="1.5" stroke-linecap="round" stroke-linejoin="round"/>
</svg>
