<svg width="24" height="24" viewBox="0 0 24 24" fill="none" xmlns="http://www.w3.org/2000/svg">
<path d="M10.75 22.5H13.27C14.23 22.5 14.85 21.82 14.67 20.99L14.26 19.1801H9.75996L9.34996 20.99C9.16996 21.77 9.84996 22.5 10.75 22.5Z" stroke="#292D32" stroke-width="1.5" stroke-linecap="round" stroke-linejoin="round"/>
<path d="M14.26 19.1701L15.99 17.63C16.96 16.77 17 16.17 16.23 15.2L13.18 11.33C12.54 10.52 11.49 10.52 10.85 11.33L7.79999 15.2C7.02999 16.17 7.02999 16.8 8.03999 17.63L9.76999 19.1701" stroke="#292D32" stroke-width="1.5" stroke-linecap="round" stroke-linejoin="round"/>
<path d="M12.01 11.12V13.65" stroke="#292D32" stroke-width="1.5" stroke-linecap="round" stroke-linejoin="round"/>
<path d="M11.15 5.19002L10.37 4.41C9.90002 3.94 9.90002 3.18004 10.37 2.71004L11.15 1.93001C11.62 1.46001 12.38 1.46001 12.85 1.93001L13.63 2.71004C14.1 3.18004 14.1 3.94 13.63 4.41L12.85 5.19002C12.38 5.66002 11.62 5.66002 11.15 5.19002Z" stroke="#292D32" stroke-width="1.5" stroke-linecap="round" stroke-linejoin="round"/>
<path d="M19.45 9.81006H20.55C21.21 9.81006 21.75 10.3501 21.75 11.0101V12.11C21.75 12.77 21.21 13.3101 20.55 13.3101H19.45C18.79 13.3101 18.25 12.77 18.25 12.11V11.0101C18.25 10.3501 18.79 9.81006 19.45 9.81006Z" stroke="#292D32" stroke-width="1.5" stroke-linecap="round" stroke-linejoin="round"/>
<path d="M4.55 9.81006H3.45C2.79 9.81006 2.25 10.3501 2.25 11.0101V12.11C2.25 12.77 2.79 13.3101 3.45 13.3101H4.55C5.21 13.3101 5.75 12.77 5.75 12.11V11.0101C5.75 10.3501 5.21 9.81006 4.55 9.81006Z" stroke="#292D32" stroke-width="1.5" stroke-linecap="round" stroke-linejoin="round"/>
<path d="M18.54 10.1L13.24 4.80005" stroke="#292D32" stroke-width="1.5" stroke-linecap="round" stroke-linejoin="round"/>
<path d="M5.46002 10.1L10.76 4.80005" stroke="#292D32" stroke-width="1.5" stroke-linecap="round" stroke-linejoin="round"/>
</svg>
