<svg width="24" height="24" viewBox="0 0 24 24" fill="none" xmlns="http://www.w3.org/2000/svg">
<path d="M7.6001 7.59998V3.89998C7.6001 3.09998 8.2001 2.39998 9.0001 2.19998C11.0001 1.89998 13.0001 1.89998 15.0001 2.19998C15.8001 2.29998 16.4001 2.99998 16.4001 3.89998V9.79998C16.4001 11 15.4001 12 14.2001 12H9.8001C8.6001 12 7.6001 13 7.6001 14.2V20.1C7.6001 20.9 8.2001 21.6 9.0001 21.8C11.0001 22.1 13.0001 22.1 15.0001 21.8C15.8001 21.7 16.4001 21 16.4001 20.1V16.4" stroke="#17191C" stroke-width="1.5" stroke-linecap="round" stroke-linejoin="round"/>
<path d="M16.4 7.59998H20.1C20.9 7.59998 21.6 8.19998 21.8 8.99998C22.1 11 22.1 13 21.8 15C21.7 15.8 21 16.4 20.1 16.4H12" stroke="#17191C" stroke-width="1.5" stroke-linecap="round" stroke-linejoin="round"/>
<path d="M12.0001 7.59998H3.9001C3.1001 7.59998 2.4001 8.19998 2.2001 8.99998C1.9001 11 1.9001 13 2.2001 15C2.3001 15.8 3.0001 16.4 3.9001 16.4H7.6001" stroke="#17191C" stroke-width="1.5" stroke-linecap="round" stroke-linejoin="round"/>
<path d="M10 4.84998V4.84998" stroke="#17191C" stroke-width="1.5" stroke-linecap="round" stroke-linejoin="round"/>
<path d="M14 19.15V19.15" stroke="#17191C" stroke-width="1.5" stroke-linecap="round" stroke-linejoin="round"/>
</svg>
