<svg width="24" height="24" viewBox="0 0 24 24" fill="none" xmlns="http://www.w3.org/2000/svg">
<path d="M13.3 8.10998L14.62 10.75C14.8 11.11 15.28 11.47 15.68 11.53L18.07 11.93C19.6 12.19 19.96 13.29 18.86 14.39L17 16.25C16.69 16.56 16.51 17.17 16.61 17.61L17.14 19.92C17.56 21.74 16.59 22.45 14.98 21.5L12.74 20.17C12.33 19.93 11.67 19.93 11.26 20.17L9.01999 21.5C7.40999 22.45 6.43998 21.74 6.85998 19.92L7.39001 17.61C7.49001 17.18 7.31 16.57 7 16.25L5.14001 14.39C4.04001 13.29 4.39999 12.18 5.92999 11.93L8.32 11.53C8.72 11.46 9.2 11.11 9.38 10.75L10.7 8.10998C11.41 6.67998 12.59 6.67998 13.3 8.10998Z" stroke="#292D32" stroke-width="1.5" stroke-linecap="round" stroke-linejoin="round"/>
<path d="M6 9V2" stroke="#292D32" stroke-width="1.5" stroke-linecap="round" stroke-linejoin="round"/>
<path d="M18 9V2" stroke="#292D32" stroke-width="1.5" stroke-linecap="round" stroke-linejoin="round"/>
<path d="M12 4V2" stroke="#292D32" stroke-width="1.5" stroke-linecap="round" stroke-linejoin="round"/>
</svg>
