<svg width="24" height="24" viewBox="0 0 24 24" fill="none" xmlns="http://www.w3.org/2000/svg">
<path d="M9 22H15C20 22 22 20 22 15V9C22 4 20 2 15 2H9C4 2 2 4 2 9V15C2 20 4 22 9 22Z" stroke="#292D32" stroke-width="1.5" stroke-linecap="round" stroke-linejoin="round"/>
<path d="M8.89999 16.53C9.37999 16.01 10.12 16.05 10.54 16.62L11.14 17.42C11.61 18.05 12.39 18.05 12.86 17.42L13.45 16.63C13.87 16.07 14.61 16.03 15.09 16.54C16.14 17.66 16.99 17.29 16.99 15.72V9.09C16.99 6.72 16.43 6.13 14.21 6.13H9.76999C7.54999 6.13 6.98999 6.72 6.98999 9.09V15.72C6.99999 17.27 7.85999 17.64 8.89999 16.53Z" stroke="#292D32" stroke-width="1.5" stroke-linecap="round" stroke-linejoin="round"/>
</svg>
