<svg width="24" height="24" viewBox="0 0 24 24" fill="none" xmlns="http://www.w3.org/2000/svg">
<path d="M14.5001 2.29999C13.5001 2.29999 12.6001 3.09999 12.6001 4.19999V8.79999C12.6001 9.79999 13.4001 10.7 14.5001 10.7C15.5001 10.7 16.4001 9.89999 16.4001 8.79999V4.09999C16.4001 3.09999 15.6001 2.29999 14.5001 2.29999Z" stroke="#17191C" stroke-width="1.5" stroke-miterlimit="10" stroke-linecap="round" stroke-linejoin="round"/>
<path d="M18.6001 10.6H20.2001C21.1001 10.6 21.8001 9.90002 21.8001 9.00002C21.8001 8.10002 21.1001 7.40002 20.2001 7.40002C19.3001 7.40002 18.6001 8.10002 18.6001 9.00002V10.6Z" stroke="#17191C" stroke-width="1.5" stroke-miterlimit="10" stroke-linecap="round" stroke-linejoin="round"/>
<path d="M2 9.19999C2 10.2 2.8 11.1 3.9 11.1H8.5C9.5 11.1 10.4 10.3 10.4 9.19999C10.4 8.19999 9.6 7.29999 8.5 7.29999H3.9C2.8 7.39999 2 8.19999 2 9.19999Z" stroke="#17191C" stroke-width="1.5" stroke-miterlimit="10" stroke-linecap="round" stroke-linejoin="round"/>
<path d="M10.4 5.1V3.6C10.4 2.7 9.69995 2 8.79995 2C7.89995 2 7.19995 2.7 7.19995 3.6C7.19995 4.5 7.89995 5.2 8.79995 5.2H10.4V5.1Z" stroke="#17191C" stroke-width="1.5" stroke-miterlimit="10" stroke-linecap="round" stroke-linejoin="round"/>
<path d="M9.4 21.8C10.4 21.8 11.3 21 11.3 19.9V15.3C11.3 14.3 10.5 13.4 9.4 13.4C8.4 13.4 7.5 14.2 7.5 15.3V19.9C7.6 20.9 8.4 21.8 9.4 21.8Z" stroke="#17191C" stroke-width="1.5" stroke-miterlimit="10" stroke-linecap="round" stroke-linejoin="round"/>
<path d="M5.39995 13.4H3.79995C2.89995 13.4 2.19995 14.1 2.19995 15C2.19995 15.9 2.89995 16.6 3.79995 16.6C4.69995 16.6 5.39995 15.9 5.39995 15V13.4Z" stroke="#17191C" stroke-width="1.5" stroke-miterlimit="10" stroke-linecap="round" stroke-linejoin="round"/>
<path d="M22.0001 14.8C22.0001 13.8 21.2001 12.9 20.1001 12.9H15.5001C14.5001 12.9 13.6001 13.7 13.6001 14.8C13.6001 15.8 14.4001 16.7 15.5001 16.7H20.1001C21.1001 16.7 22.0001 15.8 22.0001 14.8Z" stroke="#17191C" stroke-width="1.5" stroke-miterlimit="10" stroke-linecap="round" stroke-linejoin="round"/>
<path d="M13.6001 18.8V20.4C13.6001 21.3 14.3001 22 15.2001 22C16.1001 22 16.8001 21.3 16.8001 20.4C16.8001 19.5 16.1001 18.8 15.2001 18.8H13.6001Z" stroke="#17191C" stroke-width="1.5" stroke-miterlimit="10" stroke-linecap="round" stroke-linejoin="round"/>
</svg>
