<svg width="24" height="24" viewBox="0 0 24 24" fill="none" xmlns="http://www.w3.org/2000/svg">
<path d="M5.28 18.65L5.85 16.18C5.98 15.6 5.75 14.79 5.33 14.37L2.85 11.89C1.39 10.43 1.86 8.95001 3.9 8.61001L7.09 8.08001C7.62 7.99001 8.26 7.52002 8.5 7.03001L10.26 3.51001C11.21 1.60001 12.77 1.60001 13.73 3.51001L15.49 7.03001C15.6 7.26001 15.81 7.48001 16.04 7.67001" stroke="#292D32" stroke-width="1.5" stroke-linecap="round" stroke-linejoin="round"/>
<path d="M20.1 8.60999C22.14 8.94999 22.62 10.43 21.15 11.89L18.67 14.37C18.25 14.79 18.02 15.6 18.15 16.18L18.86 19.25C19.42 21.68 18.13 22.62 15.98 21.35L12.99 19.58C12.45 19.26 11.56 19.26 11.01 19.58L8.02 21.35" stroke="#292D32" stroke-width="1.5" stroke-linecap="round" stroke-linejoin="round"/>
<path d="M22 2L2 22" stroke="#292D32" stroke-width="1.5" stroke-linecap="round" stroke-linejoin="round"/>
</svg>
