<svg width="24" height="24" viewBox="0 0 24 24" fill="none" xmlns="http://www.w3.org/2000/svg">
<path d="M15 22H9C4 22 2 20 2 15V9C2 4 4 2 9 2H15C20 2 22 4 22 9V15C22 20 20 22 15 22Z" stroke="black" stroke-width="1.5" stroke-linecap="round" stroke-linejoin="round"/>
<path d="M9.54988 17.72H7.09988C6.42988 17.72 5.87988 17.17 5.87988 16.5V7.50998C5.87988 6.83998 6.42988 6.28998 7.09988 6.28998H9.54988C10.2199 6.28998 10.7699 6.83998 10.7699 7.50998V16.49C10.7699 17.17 10.2199 17.72 9.54988 17.72Z" stroke="black" stroke-width="1.5" stroke-miterlimit="10"/>
<path d="M17.14 13.63H14.2C13.66 13.63 13.22 13.19 13.22 12.65V7.26998C13.22 6.72998 13.66 6.28998 14.2 6.28998H17.14C17.68 6.28998 18.12 6.72998 18.12 7.26998V12.66C18.13 13.19 17.68 13.63 17.14 13.63Z" stroke="black" stroke-width="1.5" stroke-miterlimit="10"/>
</svg>
