<svg width="24" height="24" viewBox="0 0 24 24" fill="none" xmlns="http://www.w3.org/2000/svg">
<path d="M16.8999 16.9C19.5999 14.2 19.5999 9.7 16.8999 7" stroke="#17191C" stroke-width="1.5" stroke-miterlimit="10" stroke-linecap="round" stroke-linejoin="round"/>
<path d="M7.09995 7.09998C4.39995 9.79998 4.39995 14.3 7.09995 17" stroke="#17191C" stroke-width="1.5" stroke-miterlimit="10" stroke-linecap="round" stroke-linejoin="round"/>
<path d="M9.69995 13.6C9.69995 14.5 10.4 15.2 11.3 15.2H13C13.7 15.2 14.4 14.6 14.4 13.8C14.4 12.9 14 12.6 13.5 12.4L10.7 11.4C9.99995 11.3 9.69995 11 9.69995 10.2C9.69995 9.39999 10.3 8.79999 11.1 8.79999H12.9C13.8 8.79999 14.5 9.49999 14.5 10.4" stroke="#17191C" stroke-width="1.5" stroke-linecap="round" stroke-linejoin="round"/>
<path d="M12 7.79999V16.2" stroke="#17191C" stroke-width="1.5" stroke-linecap="round" stroke-linejoin="round"/>
<path d="M12 22C17.5228 22 22 17.5228 22 12C22 6.47715 17.5228 2 12 2C6.47715 2 2 6.47715 2 12C2 17.5228 6.47715 22 12 22Z" stroke="#17191C" stroke-width="1.5" stroke-miterlimit="10" stroke-linecap="round" stroke-linejoin="round"/>
</svg>
