<svg xmlns="http://www.w3.org/2000/svg" width="24" height="24" fill="none" viewBox="0 0 24 24">
  <path stroke="currentColor" stroke-linecap="round" stroke-linejoin="round" d="M12 14.042a2.333 2.333 0 0 0 2.333-2.334V8.5a2.333 2.333 0 1 0-4.666 0v3.208A2.333 2.333 0 0 0 12 14.042Z"/>
  <path stroke="currentColor" stroke-linecap="round" stroke-linejoin="round" d="M7.537 10.63v.99c0 2.463 2.001 4.463 4.463 4.463s4.462-2 4.462-4.462v-.992M11.19 8.75a2.35 2.35 0 0 1 1.62 0m-1.277 1.237c.31-.081.63-.081.94 0M12 16.083v1.75"/>
</svg>
